<?xml version="1.0" encoding="UTF-8"?>
<!DOCTYPE svg PUBLIC "-//W3C//DTD SVG 1.1//EN" "http://www.w3.org/Graphics/SVG/1.1/DTD/svg11.dtd">
<!-- Creator: CorelDRAW 2019 (64-Bit) -->
<svg xmlns="http://www.w3.org/2000/svg" xml:space="preserve" width="53.0931mm" height="53.0931mm" version="1.1" style="shape-rendering:geometricPrecision; text-rendering:geometricPrecision; image-rendering:optimizeQuality; fill-rule:evenodd; clip-rule:evenodd"
viewBox="0 0 5351.94 5351.94"
 xmlns:xlink="http://www.w3.org/1999/xlink">
 <defs>
  <style type="text/css">
   <![CDATA[
    .fil1 {fill:none}
    .fil0 {fill:#262A2D}
   ]]>
  </style>
 </defs>
 <g id="Слой_x0020_1">
  <metadata id="CorelCorpID_0Corel-Layer"/>
  <path class="fil0" d="M563.75 4310.42l1634.46 -1634.46 -1634.46 -1634.45c-131.39,-131.39 -131.39,-346.38 0,-477.77l0 0c131.39,-131.39 346.38,-131.39 477.77,0l1634.46 1634.45 1634.45 -1634.45c131.39,-131.39 346.38,-131.39 477.77,0l0 0c131.39,131.39 131.39,346.38 0,477.77l-1634.45 1634.45 1634.45 1634.46c131.39,131.39 131.39,346.38 0,477.77l0 0c-131.39,131.39 -346.38,131.39 -477.77,0l-1634.45 -1634.46 -1634.46 1634.46c-131.39,131.39 -346.38,131.39 -477.77,0l0 0c-131.39,-131.39 -131.39,-346.38 0,-477.77z"/>
  <rect class="fil1" x="-0.01" y="-0.01" width="5351.94" height="5351.94"/>
 </g>
</svg>
