<?xml version="1.0" encoding="UTF-8"?>
<!DOCTYPE svg PUBLIC "-//W3C//DTD SVG 1.1//EN" "http://www.w3.org/Graphics/SVG/1.1/DTD/svg11.dtd">
<!-- Creator: CorelDRAW 2019 (64-Bit) -->
<svg xmlns="http://www.w3.org/2000/svg" xml:space="preserve" width="196.117mm" height="163.232mm" version="1.1" style="shape-rendering:geometricPrecision; text-rendering:geometricPrecision; image-rendering:optimizeQuality; fill-rule:evenodd; clip-rule:evenodd"
viewBox="0 0 3197.6 2661.42"
 xmlns:xlink="http://www.w3.org/1999/xlink">
 <defs>
  <style type="text/css">
   <![CDATA[
    .fil1 {fill:#336666}
    .fil2 {fill:#33CC99}
    .fil0 {fill:#669999}
   ]]>
  </style>
 </defs>
 <g id="Слой_x0020_2">
  <metadata id="CorelCorpID_0Corel-Layer"/>
  <path class="fil0" d="M1598.8 349.16c0,0 324.98,-319.23 813.89,-347.99 488.91,-28.76 871.41,486.04 767.88,974.94 -56.06,264.72 -298.68,719.7 -490.89,930.49 -228.51,250.61 -464,462.41 -675.07,597.28 500.68,-336.68 1041.56,-1136.51 1084.13,-1635.69 19.05,-223.38 -188.41,-772.1 -686.05,-809.51 -413.39,-31.07 -813.89,290.47 -813.89,290.47zm21.4 2311.58c-7.22,0.42 -14.37,0.68 -21.4,0.68 7.07,0 14.23,-0.31 21.4,-0.68z"/>
  <path class="fil1" d="M1598.8 349.16c0,0 -324.98,-319.23 -813.89,-347.99 445.77,28.76 813.89,347.99 813.89,347.99zm-856.84 -349.09c-468.09,2.71 -825.41,501.55 -724.93,976.05 56.06,264.72 298.68,719.7 490.89,930.49 397.68,436.12 816.51,754.82 1090.88,754.82 -515.12,0 -1361.01,-1199.76 -1465.66,-1693.93 -100.17,-473.04 186.35,-962.22 608.82,-967.42z"/>
  <path class="fil2" d="M1598.8 2661.42c-515.12,0 -1361.01,-1199.76 -1465.66,-1693.93 -103.53,-488.91 205.99,-995.08 651.76,-966.32 445.77,28.76 813.89,347.99 813.89,347.99 0,0 400.5,-321.54 813.89,-290.47 497.64,37.41 705.1,586.12 686.05,809.51 -55.02,645.28 -942.79,1793.23 -1499.95,1793.23z"/>
 </g>
</svg>
