<?xml version="1.0" encoding="UTF-8"?>
<!DOCTYPE svg PUBLIC "-//W3C//DTD SVG 1.1//EN" "http://www.w3.org/Graphics/SVG/1.1/DTD/svg11.dtd">
<!-- Creator: CorelDRAW 2019 (64-Bit) -->
<svg xmlns="http://www.w3.org/2000/svg" xml:space="preserve" width="79.0221mm" height="79.0221mm" version="1.1" style="shape-rendering:geometricPrecision; text-rendering:geometricPrecision; image-rendering:optimizeQuality; fill-rule:evenodd; clip-rule:evenodd"
viewBox="0 0 325.67 325.67"
 xmlns:xlink="http://www.w3.org/1999/xlink">
 <defs>
  <style type="text/css">
   <![CDATA[
    .fil2 {fill:black}
    .fil0 {fill:black;fill-rule:nonzero}
    .fil1 {fill:white;fill-rule:nonzero}
   ]]>
  </style>
 </defs>
 <g id="Слой_x0020_2">
  <metadata id="CorelCorpID_0Corel-Layer"/>
  <g id="_1510325507552">
   <g>
    <path class="fil0" d="M178.14 209.28l-32.7 0c-0.09,-4.71 -0.13,-7.54 -0.13,-8.59 0,-10.55 1.74,-19.23 5.28,-26.08 3.49,-6.8 10.46,-14.48 20.97,-23.02 10.51,-8.5 16.79,-14.08 18.84,-16.74 3.18,-4.19 4.75,-8.81 4.75,-13.82 0,-6.93 -2.79,-12.91 -8.42,-17.83 -5.58,-4.97 -13.12,-7.46 -22.63,-7.46 -9.16,0 -16.79,2.62 -22.98,7.81 -6.15,5.23 -10.38,13.17 -12.69,23.85l-32.96 -4.19c0.96,-15.3 7.46,-28.26 19.53,-38.94 12.08,-10.68 27.95,-16 47.57,-16 20.67,0 37.11,5.41 49.32,16.18 12.21,10.77 18.31,23.28 18.31,37.63 0,7.89 -2.22,15.44 -6.72,22.5 -4.49,7.06 -14.04,16.7 -28.73,28.91 -7.59,6.28 -12.3,11.38 -14.13,15.22 -1.83,3.84 -2.66,10.68 -2.49,20.58zm-32.7 48.14l0 -35.84 32.7 0 0 35.84 -32.7 0z"/>
    <path id="1" class="fil1" d="M145.44 208.55l32.7 0 0 1.45 -32.7 0 -0.73 -0.71 0.73 -0.74zm0 1.45l-0.71 0 -0.01 -0.71 0.73 0.71zm-0.86 -9.32l1.45 0 0 0 0 0.1 0 0.11 0 0.12 0 0.13 0 0.15 0 0.15 0 0.17 0 0.18 0 0.19 0 0.2 0 0.21 0 0.22 0 0.23 0 0.24 0 0.25 0 0.26 0 0.27 0 0.28 0 0.29 0 0.31 0.01 0.32 0.01 0.33 0.01 0.34 0.01 0.35 0.01 0.36 0.01 0.37 0.01 0.38 0.01 0.39 0.01 0.4 0.01 0.41 0.01 0.43 0.01 0.44 -1.45 0.03 -0.01 -0.44 -0.01 -0.42 -0.01 -0.41 -0.01 -0.4 -0.01 -0.39 -0.01 -0.38 -0.01 -0.37 -0.01 -0.36 -0.01 -0.35 -0.01 -0.34 -0.01 -0.33 -0.01 -0.32 -0 -0.31 -0 -0.3 -0 -0.28 -0 -0.27 -0 -0.26 -0 -0.25 -0 -0.24 -0 -0.23 -0 -0.22 -0 -0.21 -0 -0.2 -0 -0.19 -0 -0.18 -0 -0.17 -0 -0.16 -0 -0.15 -0 -0.14 -0 -0.13 -0 -0.12 0 -0.1 0 0zm5.36 -26.41l1.29 0.66 -0 0 -0.32 0.63 -0.31 0.64 -0.3 0.66 -0.29 0.67 -0.28 0.68 -0.27 0.69 -0.26 0.7 -0.25 0.71 -0.24 0.72 -0.23 0.73 -0.22 0.74 -0.21 0.75 -0.2 0.77 -0.19 0.78 -0.18 0.79 -0.17 0.8 -0.16 0.81 -0.15 0.82 -0.14 0.83 -0.13 0.84 -0.12 0.85 -0.11 0.87 -0.1 0.88 -0.09 0.89 -0.08 0.9 -0.07 0.91 -0.06 0.92 -0.05 0.93 -0.04 0.94 -0.03 0.95 -0.02 0.96 -0 0.98 -1.45 0 0 -0.99 0.02 -0.98 0.03 -0.97 0.04 -0.96 0.05 -0.95 0.06 -0.94 0.07 -0.93 0.08 -0.92 0.09 -0.91 0.1 -0.89 0.11 -0.88 0.12 -0.87 0.13 -0.86 0.14 -0.85 0.15 -0.84 0.16 -0.83 0.17 -0.82 0.18 -0.81 0.19 -0.8 0.2 -0.79 0.21 -0.78 0.23 -0.77 0.24 -0.76 0.25 -0.75 0.26 -0.73 0.27 -0.72 0.28 -0.71 0.29 -0.7 0.3 -0.69 0.31 -0.68 0.32 -0.67 0.33 -0.66 -0 0zm21.16 -23.26l0.91 1.13 0 -0 -0.97 0.79 -0.95 0.79 -0.93 0.78 -0.91 0.78 -0.89 0.77 -0.87 0.77 -0.85 0.76 -0.83 0.76 -0.8 0.75 -0.78 0.75 -0.76 0.74 -0.74 0.74 -0.72 0.73 -0.7 0.73 -0.68 0.72 -0.66 0.72 -0.64 0.71 -0.62 0.71 -0.6 0.7 -0.58 0.69 -0.56 0.69 -0.54 0.68 -0.51 0.68 -0.49 0.67 -0.47 0.67 -0.45 0.66 -0.43 0.65 -0.41 0.65 -0.39 0.64 -0.37 0.64 -0.35 0.63 -0.33 0.63 -1.29 -0.66 0.34 -0.65 0.37 -0.66 0.39 -0.66 0.41 -0.67 0.43 -0.67 0.45 -0.68 0.47 -0.68 0.49 -0.69 0.51 -0.69 0.53 -0.69 0.55 -0.7 0.57 -0.7 0.59 -0.71 0.61 -0.71 0.63 -0.72 0.65 -0.72 0.67 -0.73 0.69 -0.73 0.71 -0.74 0.73 -0.74 0.75 -0.75 0.77 -0.75 0.79 -0.76 0.81 -0.76 0.83 -0.77 0.86 -0.77 0.88 -0.78 0.9 -0.78 0.92 -0.79 0.94 -0.79 0.96 -0.8 0.98 -0.8 0 -0zm18.72 -16.62l1.16 0.88 -0 0 -0.22 0.27 -0.24 0.29 -0.26 0.3 -0.29 0.32 -0.31 0.33 -0.33 0.35 -0.36 0.37 -0.38 0.38 -0.41 0.4 -0.43 0.42 -0.46 0.43 -0.48 0.45 -0.5 0.47 -0.53 0.48 -0.55 0.5 -0.58 0.52 -0.6 0.53 -0.63 0.55 -0.65 0.57 -0.68 0.58 -0.7 0.6 -0.73 0.62 -0.75 0.64 -0.78 0.65 -0.8 0.67 -0.83 0.69 -0.85 0.7 -0.88 0.72 -0.9 0.74 -0.92 0.76 -0.95 0.77 -0.97 0.79 -0.91 -1.13 0.97 -0.79 0.95 -0.77 0.92 -0.75 0.9 -0.74 0.87 -0.72 0.85 -0.7 0.82 -0.68 0.8 -0.67 0.77 -0.65 0.75 -0.63 0.72 -0.62 0.7 -0.6 0.67 -0.58 0.65 -0.56 0.62 -0.55 0.6 -0.53 0.57 -0.51 0.55 -0.49 0.52 -0.48 0.5 -0.46 0.47 -0.44 0.45 -0.43 0.42 -0.41 0.4 -0.39 0.37 -0.37 0.35 -0.35 0.32 -0.34 0.3 -0.32 0.27 -0.3 0.25 -0.28 0.22 -0.26 0.19 -0.24 -0 0zm4.6 -13.38l1.45 0 0 0 -0 0.48 -0.01 0.48 -0.02 0.48 -0.03 0.48 -0.04 0.47 -0.05 0.47 -0.06 0.47 -0.07 0.47 -0.08 0.47 -0.09 0.46 -0.1 0.46 -0.11 0.46 -0.12 0.46 -0.13 0.45 -0.14 0.45 -0.15 0.45 -0.16 0.45 -0.17 0.44 -0.18 0.44 -0.19 0.44 -0.2 0.43 -0.21 0.43 -0.22 0.43 -0.22 0.43 -0.23 0.42 -0.24 0.42 -0.25 0.42 -0.26 0.42 -0.27 0.41 -0.28 0.41 -0.29 0.41 -0.3 0.4 -1.16 -0.88 0.29 -0.38 0.28 -0.39 0.27 -0.39 0.26 -0.39 0.25 -0.39 0.24 -0.39 0.23 -0.4 0.22 -0.4 0.21 -0.4 0.2 -0.4 0.19 -0.4 0.18 -0.41 0.18 -0.41 0.17 -0.41 0.16 -0.41 0.15 -0.42 0.14 -0.42 0.13 -0.42 0.12 -0.42 0.11 -0.43 0.1 -0.43 0.09 -0.43 0.08 -0.43 0.08 -0.44 0.07 -0.44 0.06 -0.44 0.05 -0.44 0.04 -0.44 0.03 -0.45 0.02 -0.45 0.01 -0.45 0 -0.45 0 0zm-8.17 -17.29l0.97 -1.09 -0 -0 0.53 0.48 0.51 0.48 0.5 0.49 0.48 0.5 0.46 0.5 0.45 0.51 0.43 0.52 0.41 0.52 0.4 0.53 0.38 0.54 0.36 0.54 0.35 0.55 0.33 0.55 0.31 0.56 0.3 0.57 0.28 0.57 0.26 0.58 0.25 0.59 0.23 0.59 0.21 0.6 0.19 0.6 0.18 0.61 0.16 0.62 0.14 0.62 0.13 0.63 0.11 0.63 0.09 0.64 0.08 0.64 0.06 0.65 0.04 0.66 0.02 0.66 0.01 0.67 -1.45 0 -0.01 -0.63 -0.02 -0.62 -0.04 -0.62 -0.06 -0.61 -0.07 -0.61 -0.09 -0.6 -0.1 -0.59 -0.12 -0.59 -0.13 -0.58 -0.15 -0.58 -0.17 -0.57 -0.18 -0.56 -0.2 -0.56 -0.21 -0.55 -0.23 -0.55 -0.25 -0.54 -0.26 -0.54 -0.28 -0.53 -0.29 -0.53 -0.31 -0.52 -0.33 -0.51 -0.34 -0.51 -0.36 -0.5 -0.38 -0.5 -0.39 -0.49 -0.41 -0.49 -0.42 -0.48 -0.44 -0.48 -0.46 -0.47 -0.47 -0.47 -0.49 -0.46 -0.51 -0.45 -0 -0zm-22.15 -7.27l0 -1.45 0 0 0.9 0.01 0.89 0.02 0.87 0.04 0.86 0.05 0.85 0.07 0.84 0.08 0.83 0.1 0.82 0.11 0.81 0.13 0.8 0.14 0.79 0.16 0.77 0.17 0.76 0.19 0.75 0.2 0.74 0.22 0.73 0.23 0.72 0.25 0.71 0.26 0.7 0.28 0.68 0.29 0.67 0.31 0.66 0.32 0.65 0.34 0.64 0.35 0.63 0.37 0.61 0.38 0.6 0.4 0.59 0.41 0.58 0.43 0.57 0.44 0.56 0.46 0.54 0.47 -0.97 1.09 -0.51 -0.45 -0.53 -0.43 -0.54 -0.42 -0.55 -0.4 -0.56 -0.39 -0.57 -0.38 -0.58 -0.36 -0.59 -0.35 -0.61 -0.33 -0.62 -0.32 -0.63 -0.3 -0.64 -0.29 -0.65 -0.28 -0.66 -0.26 -0.67 -0.25 -0.68 -0.23 -0.7 -0.22 -0.71 -0.21 -0.72 -0.19 -0.73 -0.18 -0.74 -0.16 -0.76 -0.15 -0.77 -0.14 -0.78 -0.12 -0.79 -0.11 -0.8 -0.09 -0.81 -0.08 -0.83 -0.06 -0.84 -0.05 -0.85 -0.04 -0.86 -0.02 -0.87 -0.01 0 0zm-22.51 7.63l-0.94 -1.11 0 -0 0.6 -0.49 0.61 -0.47 0.62 -0.46 0.62 -0.44 0.63 -0.43 0.64 -0.41 0.65 -0.4 0.66 -0.38 0.67 -0.37 0.68 -0.35 0.69 -0.34 0.69 -0.32 0.7 -0.3 0.71 -0.29 0.72 -0.27 0.73 -0.26 0.74 -0.24 0.75 -0.23 0.76 -0.21 0.76 -0.19 0.77 -0.18 0.78 -0.16 0.79 -0.15 0.8 -0.13 0.81 -0.12 0.82 -0.1 0.82 -0.09 0.83 -0.07 0.84 -0.05 0.85 -0.04 0.86 -0.02 0.87 -0.01 0 1.45 -0.84 0.01 -0.83 0.02 -0.82 0.04 -0.81 0.05 -0.8 0.07 -0.79 0.08 -0.79 0.1 -0.78 0.11 -0.77 0.13 -0.76 0.14 -0.75 0.16 -0.74 0.17 -0.73 0.19 -0.72 0.2 -0.71 0.22 -0.71 0.23 -0.7 0.25 -0.69 0.26 -0.68 0.28 -0.67 0.29 -0.66 0.31 -0.65 0.32 -0.65 0.34 -0.64 0.35 -0.63 0.36 -0.62 0.38 -0.61 0.39 -0.6 0.41 -0.6 0.42 -0.59 0.44 -0.58 0.45 -0.57 0.47 0 -0zm-13.25 24.02l0.18 -1.44 -0.8 0.57 0.22 -1 0.24 -0.99 0.25 -0.97 0.26 -0.96 0.27 -0.94 0.28 -0.92 0.29 -0.91 0.3 -0.89 0.32 -0.88 0.33 -0.86 0.34 -0.85 0.35 -0.83 0.36 -0.81 0.37 -0.8 0.39 -0.78 0.4 -0.77 0.41 -0.75 0.42 -0.73 0.43 -0.72 0.44 -0.7 0.46 -0.69 0.47 -0.67 0.48 -0.66 0.49 -0.64 0.5 -0.62 0.51 -0.61 0.53 -0.59 0.54 -0.57 0.55 -0.56 0.56 -0.54 0.57 -0.53 0.58 -0.51 0.94 1.11 -0.56 0.49 -0.55 0.5 -0.53 0.52 -0.52 0.53 -0.51 0.55 -0.5 0.56 -0.49 0.58 -0.48 0.6 -0.47 0.61 -0.46 0.63 -0.45 0.64 -0.44 0.66 -0.43 0.68 -0.42 0.69 -0.41 0.71 -0.4 0.72 -0.38 0.74 -0.37 0.76 -0.36 0.77 -0.35 0.79 -0.34 0.8 -0.33 0.82 -0.32 0.84 -0.31 0.85 -0.3 0.87 -0.29 0.89 -0.28 0.9 -0.26 0.92 -0.25 0.93 -0.24 0.95 -0.23 0.97 -0.22 0.98 -0.8 0.57zm0.8 -0.57l-0.14 0.65 -0.66 -0.08 0.8 -0.57zm-33.58 -5.06l32.96 4.19 -0.18 1.44 -32.96 -4.19 -0.63 -0.77 0.82 -0.68zm-0.18 1.44l-0.68 -0.09 0.04 -0.68 0.63 0.77zm19.14 -40.2l0.96 1.09 0 0 -1.1 1 -1.07 1.01 -1.04 1.02 -1.01 1.04 -0.97 1.05 -0.94 1.06 -0.91 1.08 -0.88 1.09 -0.84 1.1 -0.81 1.11 -0.78 1.13 -0.75 1.14 -0.71 1.15 -0.68 1.17 -0.65 1.18 -0.62 1.19 -0.59 1.21 -0.55 1.22 -0.52 1.23 -0.49 1.25 -0.46 1.26 -0.43 1.27 -0.39 1.29 -0.36 1.3 -0.33 1.31 -0.3 1.33 -0.26 1.34 -0.23 1.36 -0.2 1.37 -0.17 1.38 -0.14 1.4 -0.1 1.41 -1.45 -0.09 0.11 -1.44 0.14 -1.43 0.17 -1.42 0.21 -1.4 0.24 -1.39 0.27 -1.38 0.31 -1.36 0.34 -1.35 0.37 -1.34 0.4 -1.32 0.44 -1.31 0.47 -1.29 0.5 -1.28 0.54 -1.27 0.57 -1.25 0.6 -1.24 0.64 -1.23 0.67 -1.21 0.7 -1.2 0.73 -1.18 0.77 -1.17 0.8 -1.16 0.83 -1.14 0.87 -1.13 0.9 -1.12 0.93 -1.1 0.96 -1.09 1 -1.07 1.03 -1.06 1.06 -1.05 1.09 -1.03 1.13 -1.02 0 0zm48.05 -16.19l0 1.45 0 0 -1.82 0.02 -1.79 0.05 -1.77 0.08 -1.75 0.11 -1.73 0.14 -1.7 0.17 -1.68 0.2 -1.66 0.23 -1.64 0.26 -1.62 0.29 -1.59 0.32 -1.57 0.36 -1.55 0.39 -1.53 0.42 -1.5 0.45 -1.48 0.48 -1.46 0.51 -1.44 0.54 -1.42 0.57 -1.39 0.6 -1.37 0.63 -1.35 0.66 -1.33 0.69 -1.3 0.73 -1.28 0.76 -1.26 0.79 -1.24 0.82 -1.22 0.85 -1.19 0.88 -1.17 0.91 -1.15 0.94 -1.13 0.97 -0.96 -1.09 1.16 -1 1.18 -0.97 1.2 -0.93 1.23 -0.9 1.25 -0.87 1.27 -0.84 1.29 -0.81 1.31 -0.78 1.34 -0.74 1.36 -0.71 1.38 -0.68 1.4 -0.65 1.43 -0.62 1.45 -0.58 1.47 -0.55 1.49 -0.52 1.51 -0.49 1.54 -0.46 1.56 -0.43 1.58 -0.39 1.6 -0.36 1.62 -0.33 1.65 -0.3 1.67 -0.27 1.69 -0.24 1.71 -0.2 1.73 -0.17 1.75 -0.14 1.78 -0.11 1.8 -0.08 1.82 -0.05 1.84 -0.02 0 0zm49.8 16.36l-0.96 1.09 0 0 -1.14 -0.98 -1.17 -0.95 -1.19 -0.92 -1.22 -0.89 -1.24 -0.86 -1.26 -0.83 -1.29 -0.79 -1.31 -0.76 -1.34 -0.73 -1.36 -0.7 -1.39 -0.67 -1.41 -0.64 -1.44 -0.61 -1.46 -0.58 -1.49 -0.55 -1.51 -0.52 -1.54 -0.49 -1.56 -0.45 -1.59 -0.42 -1.61 -0.39 -1.64 -0.36 -1.66 -0.33 -1.69 -0.3 -1.71 -0.27 -1.74 -0.24 -1.76 -0.2 -1.79 -0.17 -1.81 -0.14 -1.84 -0.11 -1.86 -0.08 -1.89 -0.05 -1.91 -0.02 0 -1.45 1.94 0.02 1.91 0.05 1.89 0.08 1.86 0.11 1.84 0.14 1.82 0.18 1.79 0.21 1.77 0.24 1.74 0.27 1.72 0.3 1.69 0.34 1.67 0.37 1.64 0.4 1.62 0.43 1.59 0.46 1.57 0.49 1.54 0.53 1.52 0.56 1.5 0.59 1.47 0.62 1.45 0.66 1.42 0.69 1.4 0.72 1.37 0.75 1.35 0.78 1.32 0.81 1.3 0.85 1.27 0.88 1.25 0.91 1.22 0.94 1.2 0.97 1.17 1.01 0 0zm18.56 38.18l-1.45 0 0 0 -0.02 -1.32 -0.05 -1.31 -0.09 -1.3 -0.12 -1.29 -0.16 -1.28 -0.19 -1.27 -0.23 -1.25 -0.26 -1.24 -0.3 -1.23 -0.33 -1.22 -0.37 -1.21 -0.4 -1.2 -0.44 -1.19 -0.47 -1.18 -0.51 -1.17 -0.55 -1.16 -0.58 -1.15 -0.62 -1.14 -0.65 -1.13 -0.69 -1.12 -0.72 -1.11 -0.76 -1.1 -0.79 -1.09 -0.83 -1.08 -0.87 -1.07 -0.9 -1.06 -0.94 -1.05 -0.97 -1.04 -1.01 -1.03 -1.04 -1.02 -1.08 -1.01 -1.12 -1 0.96 -1.09 1.14 1.02 1.1 1.04 1.07 1.05 1.03 1.06 0.99 1.07 0.96 1.08 0.92 1.09 0.89 1.1 0.85 1.11 0.82 1.12 0.78 1.13 0.74 1.14 0.71 1.16 0.67 1.17 0.64 1.18 0.6 1.19 0.56 1.2 0.53 1.21 0.49 1.22 0.45 1.23 0.42 1.24 0.38 1.25 0.34 1.26 0.31 1.27 0.27 1.29 0.24 1.3 0.2 1.31 0.16 1.32 0.13 1.33 0.09 1.34 0.05 1.35 0.02 1.36 0 0zm-6.83 22.89l-1.23 -0.78 0 0 0.41 -0.65 0.39 -0.66 0.38 -0.66 0.37 -0.66 0.36 -0.66 0.34 -0.67 0.33 -0.67 0.32 -0.67 0.3 -0.67 0.29 -0.68 0.28 -0.68 0.26 -0.68 0.25 -0.68 0.24 -0.69 0.23 -0.69 0.21 -0.69 0.2 -0.69 0.19 -0.69 0.17 -0.7 0.16 -0.7 0.15 -0.7 0.13 -0.7 0.12 -0.71 0.11 -0.71 0.1 -0.71 0.08 -0.71 0.07 -0.72 0.06 -0.72 0.05 -0.72 0.03 -0.72 0.02 -0.72 0.01 -0.73 1.45 0 -0.01 0.75 -0.02 0.75 -0.03 0.75 -0.05 0.75 -0.06 0.74 -0.07 0.74 -0.09 0.74 -0.1 0.74 -0.11 0.73 -0.13 0.73 -0.14 0.73 -0.15 0.73 -0.17 0.73 -0.18 0.72 -0.19 0.72 -0.21 0.72 -0.22 0.72 -0.23 0.71 -0.25 0.71 -0.26 0.71 -0.27 0.71 -0.29 0.7 -0.3 0.7 -0.31 0.7 -0.33 0.69 -0.34 0.69 -0.35 0.69 -0.37 0.69 -0.38 0.68 -0.39 0.68 -0.41 0.68 -0.42 0.67 0 0zm-28.88 29.08l-0.93 -1.12 -0 0 1.36 -1.14 1.33 -1.12 1.3 -1.1 1.27 -1.09 1.24 -1.07 1.21 -1.06 1.18 -1.04 1.15 -1.03 1.12 -1.01 1.09 -1 1.06 -0.98 1.03 -0.97 1 -0.95 0.97 -0.94 0.94 -0.92 0.91 -0.91 0.88 -0.89 0.85 -0.88 0.82 -0.86 0.79 -0.85 0.76 -0.83 0.73 -0.81 0.7 -0.8 0.67 -0.78 0.64 -0.77 0.61 -0.75 0.58 -0.74 0.55 -0.72 0.52 -0.71 0.49 -0.69 0.46 -0.67 0.43 -0.66 1.23 0.78 -0.44 0.68 -0.47 0.7 -0.5 0.71 -0.53 0.72 -0.56 0.74 -0.59 0.75 -0.62 0.77 -0.65 0.78 -0.68 0.8 -0.71 0.81 -0.74 0.83 -0.77 0.84 -0.8 0.86 -0.83 0.87 -0.86 0.89 -0.89 0.9 -0.92 0.91 -0.95 0.93 -0.98 0.95 -1.01 0.96 -1.04 0.97 -1.07 0.99 -1.1 1 -1.12 1.02 -1.16 1.03 -1.18 1.05 -1.21 1.06 -1.25 1.08 -1.27 1.09 -1.31 1.11 -1.33 1.12 -1.36 1.14 -0 0zm-13.93 14.97l-1.31 -0.63 0 0 0.19 -0.38 0.21 -0.39 0.22 -0.39 0.24 -0.4 0.26 -0.41 0.27 -0.41 0.29 -0.42 0.31 -0.43 0.32 -0.43 0.34 -0.44 0.36 -0.45 0.37 -0.45 0.39 -0.46 0.41 -0.47 0.42 -0.47 0.44 -0.48 0.46 -0.49 0.47 -0.49 0.49 -0.5 0.51 -0.51 0.52 -0.51 0.54 -0.52 0.56 -0.53 0.57 -0.53 0.59 -0.54 0.61 -0.55 0.62 -0.55 0.64 -0.56 0.66 -0.57 0.67 -0.57 0.69 -0.58 0.71 -0.59 0.93 1.12 -0.7 0.58 -0.68 0.58 -0.67 0.57 -0.65 0.56 -0.63 0.55 -0.61 0.55 -0.6 0.54 -0.58 0.53 -0.56 0.53 -0.55 0.52 -0.53 0.51 -0.51 0.5 -0.5 0.5 -0.48 0.49 -0.46 0.48 -0.44 0.47 -0.43 0.47 -0.41 0.46 -0.39 0.45 -0.38 0.44 -0.36 0.44 -0.34 0.43 -0.32 0.42 -0.31 0.41 -0.29 0.4 -0.27 0.4 -0.26 0.39 -0.24 0.38 -0.22 0.37 -0.21 0.36 -0.19 0.35 -0.17 0.34 0 0zm-3.14 21l0 -1.45 -0.73 0.74 -0.01 -0.92 -0.01 -0.91 -0 -0.89 0 -0.87 0.01 -0.85 0.02 -0.83 0.02 -0.82 0.03 -0.8 0.03 -0.78 0.04 -0.76 0.05 -0.75 0.05 -0.73 0.06 -0.71 0.06 -0.7 0.07 -0.68 0.08 -0.66 0.08 -0.64 0.09 -0.63 0.09 -0.61 0.1 -0.59 0.11 -0.57 0.11 -0.56 0.12 -0.54 0.12 -0.52 0.13 -0.51 0.14 -0.49 0.14 -0.47 0.15 -0.46 0.16 -0.44 0.16 -0.42 0.17 -0.41 0.18 -0.39 1.31 0.63 -0.16 0.35 -0.15 0.37 -0.15 0.38 -0.14 0.4 -0.14 0.42 -0.13 0.44 -0.13 0.46 -0.12 0.48 -0.12 0.5 -0.11 0.51 -0.11 0.53 -0.1 0.55 -0.1 0.57 -0.09 0.59 -0.09 0.61 -0.08 0.62 -0.07 0.64 -0.07 0.66 -0.06 0.68 -0.06 0.7 -0.05 0.72 -0.04 0.73 -0.04 0.75 -0.03 0.77 -0.03 0.79 -0.02 0.81 -0.02 0.82 -0.01 0.84 -0 0.86 0 0.88 0.01 0.9 0.01 0.91 -0.73 0.74zm0.73 -0.74l0.01 0.74 -0.74 0 0.73 -0.74zm-32.7 12.31l0 35.84 -1.45 0 0 -35.84 0.73 -0.73 0.73 0.73zm-1.45 0l0 -0.73 0.73 0 -0.73 0.73zm33.43 0.73l-32.7 0 0 -1.45 32.7 0 0.73 0.73 -0.73 0.73zm0 -1.45l0.73 0 0 0.73 -0.73 -0.73zm-0.73 36.57l0 -35.84 1.45 0 0 35.84 -0.73 0.73 -0.73 -0.73zm1.45 0l0 0.73 -0.73 0 0.73 -0.73zm-33.43 -0.73l32.7 0 0 1.45 -32.7 0 -0.73 -0.73 0.73 -0.73zm0 1.45l-0.73 0 0 -0.73 0.73 0.73z"/>
   </g>
   <g>
    <path class="fil2" d="M39.98 8l245.71 0 0 -7.27 39.26 0 0 39.26 -7.27 0 0 245.71 7.27 0 0 39.26 -39.26 0 0 -7.27 -245.71 0 0 7.27 -39.26 0 0 -39.26 7.27 0 0 -245.71 -7.27 0 0 -39.26 39.26 0 0 7.27zm0 31.99l245.71 0 0 245.71 -245.71 0 0 -245.71z"/>
    <path id="1" class="fil1" d="M285.69 8.72l-245.71 0 0 -1.45 245.71 0 0.73 0.73 -0.73 0.73zm0.73 -0.73l0 0.73 -0.73 0 0.73 -0.73zm0 -7.27l0 7.27 -1.45 0 0 -7.27 0.73 -0.73 0.73 0.73zm-1.45 0l0 -0.73 0.73 0 -0.73 0.73zm39.98 0.73l-39.26 0 0 -1.45 39.26 0 0.73 0.73 -0.73 0.73zm0 -1.45l0.73 0 0 0.73 -0.73 -0.73zm-0.73 39.98l0 -39.26 1.45 0 0 39.26 -0.73 0.73 -0.73 -0.73zm1.45 0l0 0.73 -0.73 0 0.73 -0.73zm-8 -0.73l7.27 0 0 1.45 -7.27 0 -0.73 -0.73 0.73 -0.73zm-0.73 0.73l0 -0.73 0.73 0 -0.73 0.73zm0 245.71l0 -245.71 1.45 0 0 245.71 -0.73 0.73 -0.73 -0.73zm0.73 0.73l-0.73 0 0 -0.73 0.73 0.73zm7.27 0l-7.27 0 0 -1.45 7.27 0 0.73 0.73 -0.73 0.73zm0 -1.45l0.73 0 0 0.73 -0.73 -0.73zm-0.73 39.98l0 -39.26 1.45 0 0 39.26 -0.73 0.73 -0.73 -0.73zm1.45 0l0 0.73 -0.73 0 0.73 -0.73zm-39.98 -0.73l39.26 0 0 1.45 -39.26 0 -0.73 -0.73 0.73 -0.73zm0 1.45l-0.73 0 0 -0.73 0.73 0.73zm0.73 -8l0 7.27 -1.45 0 0 -7.27 0.73 -0.73 0.73 0.73zm-0.73 -0.73l0.73 0 0 0.73 -0.73 -0.73zm-245.71 0l245.71 0 0 1.45 -245.71 0 -0.73 -0.73 0.73 -0.73zm-0.73 0.73l0 -0.73 0.73 0 -0.73 0.73zm0 7.27l0 -7.27 1.45 0 0 7.27 -0.73 0.73 -0.73 -0.73zm1.45 0l0 0.73 -0.73 0 0.73 -0.73zm-39.98 -0.73l39.26 0 0 1.45 -39.26 0 -0.73 -0.73 0.73 -0.73zm0 1.45l-0.73 0 0 -0.73 0.73 0.73zm0.73 -39.98l0 39.26 -1.45 0 0 -39.26 0.73 -0.73 0.73 0.73zm-1.45 0l0 -0.73 0.73 0 -0.73 0.73zm8 0.73l-7.27 0 0 -1.45 7.27 0 0.73 0.73 -0.73 0.73zm0.73 -0.73l0 0.73 -0.73 0 0.73 -0.73zm0 -245.71l0 245.71 -1.45 0 0 -245.71 0.73 -0.73 0.73 0.73zm-0.73 -0.73l0.73 0 0 0.73 -0.73 -0.73zm-7.27 0l7.27 0 0 1.45 -7.27 0 -0.73 -0.73 0.73 -0.73zm0 1.45l-0.73 0 0 -0.73 0.73 0.73zm0.73 -39.98l0 39.26 -1.45 0 0 -39.26 0.73 -0.73 0.73 0.73zm-1.45 0l0 -0.73 0.73 0 -0.73 0.73zm39.98 0.73l-39.26 0 0 -1.45 39.26 0 0.73 0.73 -0.73 0.73zm0 -1.45l0.73 0 0 0.73 -0.73 -0.73zm-0.73 8l0 -7.27 1.45 0 0 7.27 -0.73 0.73 -0.73 -0.73zm0.73 0.73l-0.73 0 0 -0.73 0.73 0.73zm245.71 31.99l-245.71 0 0 -1.45 245.71 0 0.73 0.73 -0.73 0.73zm0 -1.45l0.73 0 0 0.73 -0.73 -0.73zm-0.73 246.44l0 -245.71 1.45 0 0 245.71 -0.73 0.73 -0.73 -0.73zm1.45 0l0 0.73 -0.73 0 0.73 -0.73zm-246.44 -0.73l245.71 0 0 1.45 -245.71 0 -0.73 -0.73 0.73 -0.73zm0 1.45l-0.73 0 0 -0.73 0.73 0.73zm0.73 -246.44l0 245.71 -1.45 0 0 -245.71 0.73 -0.73 0.73 0.73zm-1.45 0l0 -0.73 0.73 0 -0.73 0.73z"/>
   </g>
  </g>
 </g>
</svg>
