<?xml version="1.0" encoding="UTF-8"?>
<!DOCTYPE svg PUBLIC "-//W3C//DTD SVG 1.1//EN" "http://www.w3.org/Graphics/SVG/1.1/DTD/svg11.dtd">
<!-- Creator: CorelDRAW 2019 (64-Bit) -->
<svg xmlns="http://www.w3.org/2000/svg" xml:space="preserve" width="95.8382mm" height="96.9834mm" version="1.1" style="shape-rendering:geometricPrecision; text-rendering:geometricPrecision; image-rendering:optimizeQuality; fill-rule:evenodd; clip-rule:evenodd"
viewBox="0 0 592.97 600.06"
 xmlns:xlink="http://www.w3.org/1999/xlink">
 <defs>
  <style type="text/css">
   <![CDATA[
    .str0 {stroke:black;stroke-width:10.91;stroke-miterlimit:22.9256}
    .fil0 {fill:black;fill-rule:nonzero}
   ]]>
  </style>
 </defs>
 <g id="Слой_x0020_2">
  <metadata id="CorelCorpID_0Corel-Layer"/>
  <path class="fil0 str0" d="M545.54 324.56c-0.03,-9.29 -0.48,-18.36 -1.39,-27.6 -1.01,-9.63 -2.46,-18.98 -4.43,-28.46 -2,-9.32 -4.4,-18.32 -7.32,-27.4 -3.28,-10.01 -7.02,-19.58 -11.39,-29.17 -4.38,-9.47 -9.17,-18.47 -14.56,-27.4 -5.7,-9.32 -11.77,-18.08 -18.5,-26.69 -6.42,-8.12 -13.1,-15.69 -20.35,-23.07 -7.29,-7.34 -14.79,-14.11 -22.83,-20.62 -8.1,-6.48 -16.33,-12.37 -25.08,-17.95 -7.89,-4.96 -15.83,-9.43 -24.16,-13.6 -9.42,-4.65 -18.85,-8.67 -28.72,-12.25 -9.48,-3.37 -18.9,-6.18 -28.69,-8.53 -2.18,-0.51 -4.36,-1 -6.55,-1.47l-2.67 -0.54 -114.2 -48.94c7.98,16.07 12.32,31.98 13,47.89 -3.3,0.59 -6.59,1.23 -9.91,1.94 -9.85,2.18 -19.34,4.8 -28.91,8.01 -9.43,3.22 -18.46,6.85 -27.51,11.04 -9.44,4.44 -18.41,9.28 -27.31,14.72 -8.82,5.47 -17.13,11.26 -25.3,17.65 -8.55,6.76 -16.5,13.81 -24.22,21.49 -7.29,7.34 -14.02,14.87 -20.49,22.95 -6.43,8.13 -12.28,16.41 -17.8,25.19 -5.2,8.39 -9.87,16.85 -14.17,25.73 -4.78,9.99 -8.86,19.99 -12.44,30.47 -2.84,8.49 -5.23,16.91 -7.27,25.63 -0.62,2.74 -1.21,5.46 -1.76,8.21 -3.09,15.85 -4.75,31.39 -5.1,47.54 -0.03,1.74 -0.04,3.48 -0.05,5.23 0.03,28.89 4.53,57.13 13.36,84.09l7.16 56.05 8.39 69.51 0.42 -0.63 0.08 0.63c8.33,-12.79 17.92,-23.26 28.84,-31.43 1.83,-1.34 3.7,-2.62 5.61,-3.84 20.26,23.96 44.51,44.21 72.14,60.1 37.77,21.55 78.95,33.39 122.4,35.32 3.89,0.16 7.75,0.24 11.64,0.25 44.18,-0.09 86.3,-10.38 125.46,-30.86 29.44,-15.55 55.36,-35.96 77.02,-60.53l34.57 -25.84 65.32 -47.82 -1.2 -0.09 1 -0.75c-17.9,-1.12 -33.87,-5.34 -48.01,-12.73 10.5,-29.16 15.85,-59.93 15.88,-91.42zm-318.6 -247.91c-1.67,12.94 -5.74,25.92 -12.24,38.98l96.11 -41.19c6.25,0.88 12.44,1.98 18.68,3.32 10.74,2.37 21.04,5.33 31.4,9.02 9.72,3.53 18.98,7.51 28.23,12.14 10.06,5.11 19.52,10.71 28.85,17.05 8.83,6.08 17.07,12.51 25.1,19.6 9.13,8.15 17.46,16.68 25.39,26 6.57,7.82 12.54,15.79 18.17,24.3 6.75,10.32 12.61,20.79 17.86,31.95 4.8,10.36 8.81,20.72 12.24,31.62 2.94,9.55 5.28,19.02 7.13,28.84 1.73,9.49 2.91,18.82 3.61,28.44 0.4,5.97 0.6,11.85 0.62,17.84 -0.03,28.1 -4.58,55.56 -13.51,81.7 -10.13,-7.97 -19.07,-17.97 -26.89,-30.02l-0.12 0.94 -0.6 -0.89 -8.53 71.22 -4.29 33.05c-16.03,20.41 -35.03,38.16 -56.81,53.03 -31,20.99 -65.15,34.54 -102.12,40.46 -13.26,2.06 -26.3,3.07 -39.72,3.1 -33.94,-0.08 -66.48,-6.53 -97.8,-19.63 -34.12,-14.4 -64.2,-35.74 -89.14,-63.1 -1.14,-1.25 -2.26,-2.51 -3.36,-3.78 12.05,-5.05 25.32,-8.03 39.83,-8.93l-0.76 -0.56 0.88 -0.07 -66.66 -49 -17.25 -12.87c-12.12,-29.95 -18.29,-61.88 -18.33,-94.63 0.03,-8.69 0.45,-17.18 1.3,-25.83 1,-9.54 2.46,-18.78 4.48,-28.15 2.37,-10.74 5.33,-21.04 9.02,-31.4 3.53,-9.72 7.51,-18.98 12.14,-28.23 11.18,-22.01 24.89,-41.53 41.77,-59.55 7.01,-7.4 14.25,-14.22 22.05,-20.77 9.83,-8.17 19.95,-15.41 30.86,-22.08 8.36,-5.05 16.77,-9.51 25.63,-13.62 9.91,-4.52 19.83,-8.33 30.22,-11.59 8.81,-2.71 17.56,-4.91 26.55,-6.68z"/>
 </g>
</svg>
